<svg height="512pt" viewBox="0 0 512 512" width="512pt" xmlns="http://www.w3.org/2000/svg"><path d="m256 512h-224c-17.679688 0-32-14.320312-32-32v-224c0-17.679688 14.320312-32 32-32h224c17.679688 0 32 14.320312 32 32v224c0 17.679688-14.320312 32-32 32zm0 0" fill="#80deea"/><path d="m428.113281 197.007812-113.121093-113.121093 33.9375-33.949219c3.023437-3.027344 4.6875-7.027344 4.6875-11.3125 0-4.273438-1.664063-8.289062-4.6875-11.3125l-27.3125-27.3125h190.382812v190.382812l-27.3125-27.3125c-6.078125-6.046874-16.589844-6.046874-22.609375 0zm0 0" fill="#42a5f5"/><path d="m337.617188 287.535156-22.625-22.625 22.625-22.621094 22.621093 22.621094zm45.246093-45.261718-22.625-22.625 22.625-22.625 22.625 22.625zm0 0" fill="#1e88e5"/><path d="m247.089844 197.007812-22.625-22.625 22.625-22.621093 22.621094 22.621093zm45.261718-45.246093-22.625-22.625 22.625-22.625 22.625 22.625zm0 0" fill="#1e88e5"/><path d="m144 464h-96v-96h32v64h64zm0 0" fill="#fff"/></svg>